PathFileType	4	(X/Y/Z)	Patient4_TMGait_0pt7_01_left_18.trc.trc
DataRate	CameraRate	NumFrames	NumMarkers	Units	OrigDataRate	OrigDataStartFrame	OrigNumFrames
86.419753086420	86.419753086420	4	33	mm	86.419753086420	124	       141
Frame#	Time	Sacral			L.Shoulder			Chest			R.Shoulder			Neck			R.ASIS			L.ASIS			R.Thigh.Superior			R.Thigh.Lateral			R.Thigh.Inferior			R.Patella			L.Thigh.Superior			L.Thigh.Lateral			L.Thigh.Inferior			L.Patella			L.Shank.Superior			L.Shank.Lateral			L.Shank.Inferior			R.Shank.Superior			R.Shank.Lateral			R.Shank.Inferior			R.Heel			R.Midfoot.Superior			R.Midfoot.Lateral			R.Toe			L.Heel			L.Midfoot.Lateral			L.Midfoot.Superior			L.Toe			L.Elbow			L.Wrist			R.Elbow			R.Wrist			
		X1	Y1	Z1	X2	Y2	Z2	X3	Y3	Z3	X4	Y4	Z4	X5	Y5	Z5	X6	Y6	Z6	X7	Y7	Z7	X8	Y8	Z8	X9	Y9	Z9	X10	Y10	Z10	X11	Y11	Z11	X12	Y12	Z12	X13	Y13	Z13	X14	Y14	Z14	X15	Y15	Z15	X16	Y16	Z16	X17	Y17	Z17	X18	Y18	Z18	X19	Y19	Z19	X20	Y20	Z20	X21	Y21	Z21	X22	Y22	Z22	X23	Y23	Z23	X24	Y24	Z24	X25	Y25	Z25	X26	Y26	Z26	X27	Y27	Z27	X28	Y28	Z28	X29	Y29	Z29	X30	Y30	Z30	X31	Y31	Z31	X32	Y32	Z32	X33	Y33	Z33	

124	22.073285714286	829.324353527489	995.610139759314	510.338092577922	1003.431529033416	1420.181601063162	324.562275246010	1116.943903559474	1344.980050249088	476.177241648822	1050.764075637792	1421.884019606950	654.416218680796	1020.759930063437	1478.142334448814	480.603808967071	1056.420404824649	931.115575410360	622.980842893638	1037.625549653273	941.502261127018	347.252418304650	1051.643914941367	717.712863230295	598.727325475414	943.064437610897	625.833042314675	657.241683400595	1003.094174149034	558.501437523923	578.620430413721	980.364401295072	472.037427032318	580.812863709763	1112.746027933094	763.964998147386	377.881342560217	1065.101586247953	634.005393560617	298.647457870185	1171.304752499656	578.937096546529	356.890887021255	1197.282328613156	512.770220655980	354.534019320625	1182.011382567100	439.296804191163	343.128620312015	1115.645329446652	309.350673630971	294.207519912771	1204.429524097688	211.203893159741	346.521616160305	938.136855378521	389.434955801501	587.412700555418	850.207295790641	298.845311780885	650.083627233420	873.628474687406	199.355883287963	584.168756357428	718.102705291181	44.158246046643	554.223580799218	890.820229692207	96.337724919525	587.147870466599	802.476407493015	37.305175742843	627.353146651545	1010.467862475045	41.830306301587	613.457712669106	1119.808622661903	38.846057771701	385.220496828915	1192.365555121981	40.213917126847	303.533084313408	1268.485399433721	110.400629521269	325.499826786679	1399.787215627291	70.647408394575	296.349118517953	829.909575652618	1118.427277764563	230.321754313625	755.318942634465	870.344329715449	247.292944660920	1219.742079424149	1128.886328143447	746.397872220825	1406.088794363508	1248.993156324807	630.080539216818	
125	22.084857142857	830.640207324825	994.117484831480	507.442668455793	1003.790305170239	1418.831816708706	321.731943020568	1117.368130761991	1344.211613476819	473.650607279421	1050.516576388861	1421.247569328228	651.645690576104	1020.898021623951	1477.132095562457	477.584586416762	1057.584989394238	929.558102776385	620.665469459569	1039.430922544329	940.496603222918	345.236347299740	1052.811175142555	716.013090916335	596.508582229867	943.794082609391	624.351966985588	654.793448794236	1003.818472673264	556.614981145588	576.402585867868	980.378732090054	469.368802217705	578.460023274876	1115.073669102658	762.420117176304	376.658934095623	1066.600207649826	632.774915335239	298.140925022815	1172.252957006775	577.363098660153	357.237744807169	1196.856764987541	509.969016561471	355.461176469898	1180.687365126152	436.229142852258	343.723175773414	1112.105322508566	307.515428349953	294.414045118429	1198.126394427953	207.674092480866	348.064270552661	936.412499275786	387.513123075888	585.286009875579	847.089065521832	298.751455449638	648.579846827819	868.160945775410	198.660278506908	583.006113246091	710.132507937154	45.269047091019	554.171928553310	883.096880518613	96.336215895726	586.859914542204	794.505824265393	37.797090922724	627.238394954690	1002.543165738421	41.073228919897	613.549672428463	1108.742416437676	37.999944460320	386.352084084754	1181.630285052948	37.985188730984	304.809400211534	1259.672051656973	105.750295369083	327.869358330018	1390.298141043586	62.429744593162	298.860787610258	828.954757173559	1117.938886153337	228.443530460159	753.422463831240	870.110083443743	246.091808291957	1220.574120277233	1129.358404205822	744.965740376005	1399.192356409167	1257.706338726425	626.709327352869	
126	22.096428571429	831.894565624545	992.875113533360	504.605372039280	1004.173579586815	1417.690863504402	318.860154758129	1117.865733003839	1343.627669407425	471.048641833215	1050.451071197771	1420.820928162884	648.858254343260	1021.200536271664	1476.364536951916	474.489228821066	1058.797701312757	928.216998583082	618.217226322293	1041.072473593353	939.842886499339	343.102117671063	1054.110977234015	714.563406377670	594.112048162659	944.773672160759	623.037972465040	652.219910594384	1004.882260697392	554.917982818751	574.096810156795	980.857396321429	466.742234041335	576.176303467615	1117.350419692373	761.322033723731	375.260434925413	1068.218286439521	632.116592010223	297.252654584913	1173.275152841622	576.280837533046	357.254296776648	1196.551442001323	507.781337906945	355.977054340625	1179.581361203500	433.803179408391	343.947495227746	1109.103931344757	306.296181968328	293.989285808863	1192.284059328810	204.897078392906	349.110319929697	934.947645928113	385.761107164415	583.179257066347	844.143997463850	298.970194905143	647.047925543683	862.871359924716	198.259311431269	581.911305803705	702.204274206150	46.904512157727	554.176411661529	875.559198124598	96.460780685080	586.646895452641	786.595785293867	38.531530814441	627.147847763594	994.662250385718	40.323709567887	613.627452385571	1098.460378546718	37.532811436796	386.976703514162	1171.638377531790	36.437098318668	305.565726757626	1251.214606828342	102.187724044325	329.632154260858	1381.279867365053	55.998089407478	300.751949458906	828.868410455368	1116.995549734588	226.483098141686	752.835605776838	869.270782502819	244.480607557167	1220.705991450478	1129.330725489723	743.928989451850	1391.952986492658	1264.856006673847	623.819225890996	
127	22.108000000000	833.075931245300	991.958741466541	501.852652727896	1004.566443002840	1416.827190310780	315.985669949219	1118.422921537183	1343.270767876539	468.390969302562	1050.602247363471	1420.651261787224	646.079280358965	1021.663109228713	1475.892686440355	471.367549413029	1060.029102606575	927.169129660457	615.627142829887	1042.513670825165	939.599032187271	340.804116171008	1055.500409377432	713.444357664970	591.535833376549	946.012013002143	621.958552339083	649.558048595709	1006.307840036443	553.487438075387	571.736200605313	981.866945444868	464.228283361377	574.060441339750	1119.523673698439	760.779402428075	373.650060835895	1069.947712741681	632.046490428621	295.984475129957	1174.342358832136	575.710621454087	356.875676970881	1196.378702779806	506.237217413632	356.023688608822	1178.684145774139	432.021566163288	343.815257680733	1106.597256076412	305.687258486150	293.011148905980	1186.876485203694	202.868700764790	349.697972732152	933.810018658867	384.243204826880	581.179112693625	841.416698011788	299.574765243319	645.542172804669	857.819826478511	198.226175795457	580.941038536780	694.359224474424	49.190040468442	554.254584190761	868.269545073977	96.732776611591	586.546543875765	778.769244027334	39.572480745126	627.099163330874	986.821428970780	39.609775531958	613.682496138110	1089.012540113152	37.376075814248	387.185162734923	1162.418543443524	35.507193908887	305.879037834016	1243.116498951848	99.711528865963	330.799412699618	1372.746894606506	51.426155568301	302.005170193405	829.700603738263	1115.635013558702	224.412577261696	753.608644075124	867.855109936351	242.465606357651	1220.054891066708	1128.793454241197	743.257411648382	1384.481108497643	1270.454220949484	621.380388344770	
